# Blender 3.5.1
# www.blender.org
mtllib carpet.mtl
o carpet3
v 1.433030 0.000000 -1.875088
v 1.433030 0.000000 -1.875088
v 1.433030 0.000000 -1.875088
v 1.433030 0.000000 1.875088
v 1.433030 0.000000 1.875088
v 1.433030 0.000000 1.875088
v 2.004590 0.000000 1.839059
v 2.004590 0.000000 1.839059
v 2.004590 0.000000 1.839059
v 2.356344 0.000000 1.732355
v 2.356344 0.000000 1.732355
v 2.356344 0.000000 1.732355
v 2.680521 0.000000 1.559079
v 2.680521 0.000000 1.559079
v 2.680521 0.000000 1.559079
v 2.964666 0.000000 1.325887
v 2.964666 0.000000 1.325887
v 2.964666 0.000000 1.325887
v 3.197857 0.000000 1.041743
v 3.197857 0.000000 1.041743
v 3.197857 0.000000 1.041743
v 3.371134 0.000000 0.717565
v 3.371134 0.000000 0.717565
v 3.371134 0.000000 0.717565
v 3.477837 0.000000 0.365812
v 3.477837 0.000000 0.365812
v 3.477837 0.000000 0.365812
v 3.513866 0.000000 -0.000000
v 3.513866 0.000000 -0.000000
v 3.513866 0.000000 -0.000000
v 3.477837 0.000000 -0.365812
v 3.477837 0.000000 -0.365812
v 3.477837 0.000000 -0.365812
v 3.371134 0.000000 -0.717565
v 3.371134 0.000000 -0.717565
v 3.371134 0.000000 -0.717565
v 3.197857 0.000000 -1.041743
v 3.197857 0.000000 -1.041743
v 3.197857 0.000000 -1.041743
v 2.964666 0.000000 -1.325887
v 2.964666 0.000000 -1.325887
v 2.964666 0.000000 -1.325887
v 2.680521 0.000000 -1.559079
v 2.680521 0.000000 -1.559079
v 2.680521 0.000000 -1.559079
v 2.356344 0.000000 -1.732355
v 2.356344 0.000000 -1.732355
v 2.356344 0.000000 -1.732355
v 2.004590 0.000000 -1.839059
v 2.004590 0.000000 -1.839059
v 2.004590 0.000000 -1.839059
v -1.406684 0.000000 1.875088
v -1.406684 0.000000 1.875088
v -1.406684 0.000000 1.875088
v -1.406684 0.000000 -1.875088
v -1.406684 0.000000 -1.875088
v -1.406684 0.000000 -1.875088
v -2.004590 0.000000 -1.839059
v -2.004590 0.000000 -1.839059
v -2.004590 0.000000 -1.839059
v -2.356344 0.000000 -1.732355
v -2.356344 0.000000 -1.732355
v -2.356344 0.000000 -1.732355
v -2.680521 0.000000 -1.559079
v -2.680521 0.000000 -1.559079
v -2.680521 0.000000 -1.559079
v -2.964666 0.000000 -1.325887
v -2.964666 0.000000 -1.325887
v -2.964666 0.000000 -1.325887
v -3.197857 0.000000 -1.041743
v -3.197857 0.000000 -1.041743
v -3.197857 0.000000 -1.041743
v -3.371134 0.000000 -0.717565
v -3.371134 0.000000 -0.717565
v -3.371134 0.000000 -0.717565
v -3.477837 0.000000 -0.365812
v -3.477837 0.000000 -0.365812
v -3.477837 0.000000 -0.365812
v -3.513866 0.000000 -0.000000
v -3.513866 0.000000 -0.000000
v -3.513866 0.000000 -0.000000
v -3.477837 0.000000 0.365811
v -3.477837 0.000000 0.365811
v -3.477837 0.000000 0.365811
v -3.371134 0.000000 0.717565
v -3.371134 0.000000 0.717565
v -3.371134 0.000000 0.717565
v -3.197857 0.000000 1.041743
v -3.197857 0.000000 1.041743
v -3.197857 0.000000 1.041743
v -2.964666 0.000000 1.325887
v -2.964666 0.000000 1.325887
v -2.964666 0.000000 1.325887
v -2.680521 0.000000 1.559079
v -2.680521 0.000000 1.559079
v -2.680521 0.000000 1.559079
v -2.356344 0.000000 1.732355
v -2.356344 0.000000 1.732355
v -2.356344 0.000000 1.732355
v -2.004590 0.000000 1.839059
v -2.004590 0.000000 1.839059
v -2.004590 0.000000 1.839059
v 2.004590 0.018315 1.839059
v 2.004590 0.018315 1.839059
v 2.004590 0.018315 1.839059
v 1.433030 0.018315 1.875088
v 1.433030 0.018315 1.875088
v 1.433030 0.018315 1.875088
v 2.356344 0.018315 1.732355
v 2.356344 0.018315 1.732355
v 2.356344 0.018315 1.732355
v 2.680521 0.018315 1.559079
v 2.680521 0.018315 1.559079
v 2.680521 0.018315 1.559079
v 2.964666 0.018315 1.325887
v 2.964666 0.018315 1.325887
v 2.964666 0.018315 1.325887
v 3.197857 0.018315 1.041743
v 3.197857 0.018315 1.041743
v 3.197857 0.018315 1.041743
v 3.371134 0.018315 0.717565
v 3.371134 0.018315 0.717565
v 3.371134 0.018315 0.717565
v 3.477837 0.018315 0.365812
v 3.477837 0.018315 0.365812
v 3.477837 0.018315 0.365812
v 3.513866 0.018315 -0.000000
v 3.513866 0.018315 -0.000000
v 3.513866 0.018315 -0.000000
v 3.477837 0.018315 -0.365812
v 3.477837 0.018315 -0.365812
v 3.477837 0.018315 -0.365812
v 3.371134 0.018315 -0.717565
v 3.371134 0.018315 -0.717565
v 3.371134 0.018315 -0.717565
v 3.197857 0.018315 -1.041743
v 3.197857 0.018315 -1.041743
v 3.197857 0.018315 -1.041743
v 2.964666 0.018315 -1.325887
v 2.964666 0.018315 -1.325887
v 2.964666 0.018315 -1.325887
v 2.680521 0.018315 -1.559079
v 2.680521 0.018315 -1.559079
v 2.680521 0.018315 -1.559079
v 2.356344 0.018315 -1.732355
v 2.356344 0.018315 -1.732355
v 2.356344 0.018315 -1.732355
v 2.004590 0.018315 -1.839059
v 2.004590 0.018315 -1.839059
v 2.004590 0.018315 -1.839059
v 1.433030 0.018315 -1.875088
v 1.433030 0.018315 -1.875088
v 1.433030 0.018315 -1.875088
v -1.406684 0.018315 -1.875088
v -1.406684 0.018315 -1.875088
v -1.406684 0.018315 -1.875088
v -1.406684 0.018315 1.875088
v -1.406684 0.018315 1.875088
v -1.406684 0.018315 1.875088
v -2.004590 0.018315 1.839059
v -2.004590 0.018315 1.839059
v -2.004590 0.018315 1.839059
v -2.356344 0.018315 -1.732355
v -2.356344 0.018315 -1.732355
v -2.356344 0.018315 -1.732355
v -2.004590 0.018315 -1.839059
v -2.004590 0.018315 -1.839059
v -2.004590 0.018315 -1.839059
v -2.680521 0.018315 -1.559079
v -2.680521 0.018315 -1.559079
v -2.680521 0.018315 -1.559079
v -2.964666 0.018315 -1.325887
v -2.964666 0.018315 -1.325887
v -2.964666 0.018315 -1.325887
v -3.197857 0.018315 -1.041743
v -3.197857 0.018315 -1.041743
v -3.197857 0.018315 -1.041743
v -3.371134 0.018315 -0.717565
v -3.371134 0.018315 -0.717565
v -3.371134 0.018315 -0.717565
v -3.477837 0.018315 -0.365812
v -3.477837 0.018315 -0.365812
v -3.477837 0.018315 -0.365812
v -3.513866 0.018315 -0.000000
v -3.513866 0.018315 -0.000000
v -3.513866 0.018315 -0.000000
v -3.477837 0.018315 0.365811
v -3.477837 0.018315 0.365811
v -3.477837 0.018315 0.365811
v -3.371134 0.018315 0.717565
v -3.371134 0.018315 0.717565
v -3.371134 0.018315 0.717565
v -3.197857 0.018315 1.041743
v -3.197857 0.018315 1.041743
v -3.197857 0.018315 1.041743
v -2.964666 0.018315 1.325887
v -2.964666 0.018315 1.325887
v -2.964666 0.018315 1.325887
v -2.680521 0.018315 1.559079
v -2.680521 0.018315 1.559079
v -2.680521 0.018315 1.559079
v -2.356344 0.018315 1.732355
v -2.356344 0.018315 1.732355
v -2.356344 0.018315 1.732355
vn -0.0000 -1.0000 -0.0000
vn -0.0000 1.0000 -0.0000
vn -0.0000 -0.0000 -1.0000
vn 0.6344 -0.0000 0.7730
vn -0.4714 -0.0000 0.8819
vn -0.0602 -0.0000 0.9982
vn 0.7730 -0.0000 0.6344
vn -0.2903 -0.0000 0.9569
vn -0.2903 -0.0000 -0.9569
vn 0.8819 -0.0000 0.4714
vn -0.0000 -0.0000 1.0000
vn -0.4714 -0.0000 -0.8819
vn 0.9569 -0.0000 0.2903
vn -0.0602 -0.0000 -0.9982
vn -0.6344 -0.0000 -0.7730
vn 0.9952 -0.0000 0.0980
vn -0.7730 -0.0000 -0.6344
vn 0.9952 -0.0000 -0.0980
vn -0.8819 -0.0000 -0.4714
vn 0.9569 -0.0000 -0.2903
vn -0.9569 -0.0000 -0.2903
vn 0.8819 -0.0000 -0.4714
vn -0.9952 -0.0000 -0.0980
vn 0.7730 -0.0000 -0.6344
vn -0.9952 -0.0000 0.0980
vn 0.6344 -0.0000 -0.7730
vn -0.9569 -0.0000 0.2903
vn 0.4714 -0.0000 -0.8819
vn 0.0629 -0.0000 0.9980
vn -0.8819 -0.0000 0.4714
vn 0.2903 -0.0000 -0.9569
vn 0.2903 -0.0000 0.9569
vn -0.7730 -0.0000 0.6344
vn 0.0629 -0.0000 -0.9980
vn 0.4714 -0.0000 0.8819
vn -0.6344 -0.0000 0.7730
vt 0.309499 0.490650
vt 0.684449 0.990203
vt 0.684449 0.990203
vt 0.309499 0.003115
vt 0.684619 0.508226
vt 0.684619 0.508226
vt 0.235195 0.007799
vt 0.757936 0.515910
vt 0.757936 0.515910
vt 0.189465 0.021671
vt 0.803594 0.529278
vt 0.803594 0.529278
vt 0.147321 0.044197
vt 0.846101 0.551113
vt 0.846101 0.551113
vt 0.110382 0.074513
vt 0.883266 0.580984
vt 0.883266 0.580984
vt 0.080066 0.111452
vt 0.913979 0.616935
vt 0.913979 0.616935
vt 0.057540 0.153597
vt 0.936797 0.658128
vt 0.936797 0.658128
vt 0.043668 0.199326
vt 0.950858 0.702979
vt 0.950858 0.702979
vt 0.038984 0.246882
vt 0.955613 0.749713
vt 0.955613 0.749713
vt 0.043668 0.294439
vt 0.951109 0.796433
vt 0.951109 0.796433
vt 0.057540 0.340168
vt 0.937305 0.841299
vt 0.937305 0.841299
vt 0.080066 0.382312
vt 0.914747 0.882535
vt 0.914747 0.882535
vt 0.110382 0.419252
vt 0.884310 0.918518
vt 0.884310 0.918518
vt 0.147322 0.449567
vt 0.847318 0.948077
vt 0.847318 0.948077
vt 0.189466 0.472094
vt 0.805018 0.969663
vt 0.805018 0.969663
vt 0.235195 0.485966
vt 0.759059 0.982824
vt 0.759059 0.982824
vt 0.317393 0.507814
vt 0.317393 0.507814
vt 0.678671 0.003115
vt 0.315052 0.990203
vt 0.315052 0.990203
vt 0.678671 0.490650
vt 0.237108 0.982249
vt 0.237108 0.982249
vt 0.756401 0.485966
vt 0.191544 0.968767
vt 0.191544 0.968767
vt 0.802130 0.472094
vt 0.149369 0.946203
vt 0.149369 0.946203
vt 0.844274 0.449567
vt 0.112351 0.916447
vt 0.112351 0.916447
vt 0.881214 0.419252
vt 0.082145 0.879956
vt 0.082145 0.879956
vt 0.911529 0.382312
vt 0.059765 0.838412
vt 0.059765 0.838412
vt 0.934056 0.340168
vt 0.046206 0.793270
vt 0.046206 0.793270
vt 0.947927 0.294439
vt 0.041915 0.746375
vt 0.041915 0.746375
vt 0.952611 0.246882
vt 0.047105 0.699614
vt 0.047105 0.699614
vt 0.947927 0.199326
vt 0.061574 0.654852
vt 0.061574 0.654852
vt 0.934056 0.153596
vt 0.084774 0.613849
vt 0.084774 0.613849
vt 0.911529 0.111452
vt 0.115370 0.577707
vt 0.115370 0.577707
vt 0.881214 0.074512
vt 0.152658 0.548419
vt 0.152658 0.548419
vt 0.844274 0.044197
vt 0.195064 0.527218
vt 0.195064 0.527218
vt 0.802130 0.021670
vt 0.240766 0.515022
vt 0.240766 0.515022
vt 0.756401 0.007799
vt 0.757478 0.518241
vt 0.757478 0.518241
vt 0.757478 0.518241
vt 0.684495 0.510597
vt 0.684495 0.510597
vt 0.684495 0.510597
vt 0.802704 0.531527
vt 0.802704 0.531527
vt 0.802704 0.531527
vt 0.844792 0.553143
vt 0.844792 0.553143
vt 0.844792 0.553143
vt 0.881600 0.582713
vt 0.881600 0.582713
vt 0.881600 0.582713
vt 0.912022 0.618302
vt 0.912022 0.618302
vt 0.912022 0.618302
vt 0.934612 0.659072
vt 0.934612 0.659072
vt 0.934612 0.659072
vt 0.948531 0.703465
vt 0.948531 0.703465
vt 0.948531 0.703465
vt 0.953237 0.749726
vt 0.953237 0.749726
vt 0.953237 0.749726
vt 0.948779 0.795974
vt 0.948779 0.795974
vt 0.948779 0.795974
vt 0.935113 0.840381
vt 0.935113 0.840381
vt 0.935113 0.840381
vt 0.912780 0.881193
vt 0.912780 0.881193
vt 0.912780 0.881193
vt 0.882639 0.916809
vt 0.882639 0.916809
vt 0.882639 0.916809
vt 0.846011 0.946064
vt 0.846011 0.946064
vt 0.846011 0.946064
vt 0.804129 0.967422
vt 0.804129 0.967422
vt 0.804129 0.967422
vt 0.758598 0.980440
vt 0.758598 0.980440
vt 0.758598 0.980440
vt 0.684324 0.987771
vt 0.684324 0.987771
vt 0.684324 0.987771
vt 0.315174 0.987805
vt 0.315174 0.987805
vt 0.315174 0.987805
vt 0.317508 0.510218
vt 0.317508 0.510218
vt 0.317508 0.510218
vt 0.241195 0.517376
vt 0.241195 0.517376
vt 0.241195 0.517376
vt 0.192456 0.966526
vt 0.192456 0.966526
vt 0.192456 0.966526
vt 0.237567 0.979901
vt 0.237567 0.979901
vt 0.237567 0.979901
vt 0.150692 0.944188
vt 0.150692 0.944188
vt 0.150692 0.944188
vt 0.114031 0.914732
vt 0.114031 0.914732
vt 0.114031 0.914732
vt 0.084125 0.878613
vt 0.084125 0.878613
vt 0.084125 0.878613
vt 0.061967 0.837491
vt 0.061967 0.837491
vt 0.061967 0.837491
vt 0.048545 0.792809
vt 0.048545 0.792809
vt 0.048545 0.792809
vt 0.044296 0.746391
vt 0.044296 0.746391
vt 0.044296 0.746391
vt 0.049434 0.700107
vt 0.049434 0.700107
vt 0.049434 0.700107
vt 0.063758 0.655804
vt 0.063758 0.655804
vt 0.063758 0.655804
vt 0.086737 0.615211
vt 0.086737 0.615211
vt 0.086737 0.615211
vt 0.117039 0.579428
vt 0.117039 0.579428
vt 0.117039 0.579428
vt 0.153947 0.550442
vt 0.153947 0.550442
vt 0.153947 0.550442
vt 0.195921 0.529456
vt 0.195921 0.529456
vt 0.195921 0.529456
s 0
f 10/10/1 7/7/1 4/4/1
f 4/4/1 54/54/1 102/102/1
f 102/102/1 99/99/1 96/96/1
f 96/96/1 93/93/1 90/90/1
f 90/90/1 87/87/1 84/84/1
f 84/84/1 81/81/1 78/78/1
f 78/78/1 75/75/1 72/72/1
f 72/72/1 69/69/1 66/66/1
f 66/66/1 63/63/1 60/60/1
f 60/60/1 57/57/1 1/1/1
f 1/1/1 49/49/1 46/46/1
f 46/46/1 43/43/1 40/40/1
f 40/40/1 37/37/1 34/34/1
f 34/34/1 31/31/1 28/28/1
f 28/28/1 25/25/1 22/22/1
f 22/22/1 19/19/1 16/16/1
f 16/16/1 13/13/1 10/10/1
f 10/10/1 4/4/1 102/102/1
f 102/102/1 96/96/1 90/90/1
f 90/90/1 84/84/1 78/78/1
f 78/78/1 72/72/1 66/66/1
f 66/66/1 60/60/1 1/1/1
f 1/1/1 46/46/1 40/40/1
f 40/40/1 34/34/1 28/28/1
f 28/28/1 22/22/1 16/16/1
f 16/16/1 10/10/1 102/102/1
f 102/102/1 90/90/1 78/78/1
f 78/78/1 66/66/1 1/1/1
f 1/1/1 40/40/1 28/28/1
f 28/28/1 16/16/1 102/102/1
f 102/102/1 78/78/1 1/1/1
f 102/102/1 1/1/1 28/28/1
f 106/106/2 103/103/2 109/109/2
f 109/109/2 112/112/2 115/115/2
f 115/115/2 118/118/2 121/121/2
f 121/121/2 124/124/2 127/127/2
f 127/127/2 130/130/2 133/133/2
f 133/133/2 136/136/2 139/139/2
f 139/139/2 142/142/2 145/145/2
f 145/145/2 148/148/2 151/151/2
f 151/151/2 155/155/2 168/168/2
f 168/168/2 165/165/2 171/171/2
f 171/171/2 174/174/2 177/177/2
f 177/177/2 180/180/2 183/183/2
f 183/183/2 186/186/2 189/189/2
f 189/189/2 192/192/2 195/195/2
f 195/195/2 198/198/2 201/201/2
f 201/201/2 204/204/2 162/162/2
f 162/162/2 158/158/2 106/106/2
f 106/106/2 109/109/2 115/115/2
f 115/115/2 121/121/2 127/127/2
f 127/127/2 133/133/2 139/139/2
f 139/139/2 145/145/2 151/151/2
f 151/151/2 168/168/2 171/171/2
f 171/171/2 177/177/2 183/183/2
f 183/183/2 189/189/2 195/195/2
f 195/195/2 201/201/2 162/162/2
f 162/162/2 106/106/2 115/115/2
f 115/115/2 127/127/2 139/139/2
f 139/139/2 151/151/2 171/171/2
f 171/171/2 183/183/2 195/195/2
f 195/195/2 162/162/2 115/115/2
f 115/115/2 139/139/2 171/171/2
f 115/115/2 171/171/2 195/195/2
f 2/2/3 56/56/3 156/156/3
f 2/2/3 156/156/3 152/152/3
s 1
f 15/15/4 17/17/4 116/116/4
f 15/15/4 116/116/4 114/114/4
s 0
f 95/95/5 97/97/5 202/202/5
f 95/95/5 202/202/5 200/200/5
f 101/101/6 52/52/6 157/157/6
f 101/101/6 157/157/6 161/161/6
f 18/18/7 20/20/7 119/119/7
f 18/18/7 119/119/7 117/117/7
f 98/98/8 100/100/8 160/160/8
f 98/98/8 160/160/8 203/203/8
f 58/58/9 62/62/9 164/164/9
f 58/58/9 164/164/9 166/166/9
f 21/21/10 23/23/10 122/122/10
f 21/21/10 122/122/10 120/120/10
f 53/53/11 5/5/11 107/107/11
f 53/53/11 107/107/11 159/159/11
f 61/61/12 65/65/12 170/170/12
f 61/61/12 170/170/12 163/163/12
f 24/24/13 26/26/13 125/125/13
f 24/24/13 125/125/13 123/123/13
f 55/55/14 59/59/14 167/167/14
f 55/55/14 167/167/14 154/154/14
f 64/64/15 68/68/15 173/173/15
f 64/64/15 173/173/15 169/169/15
f 27/27/16 30/30/16 129/129/16
f 27/27/16 129/129/16 126/126/16
f 67/67/17 71/71/17 176/176/17
f 67/67/17 176/176/17 172/172/17
f 29/29/18 33/33/18 132/132/18
f 29/29/18 132/132/18 128/128/18
f 70/70/19 74/74/19 179/179/19
f 70/70/19 179/179/19 175/175/19
s 1
f 32/32/20 36/36/20 135/135/20
f 32/32/20 135/135/20 131/131/20
s 0
f 73/73/21 77/77/21 182/182/21
f 73/73/21 182/182/21 178/178/21
f 35/35/22 39/39/22 138/138/22
f 35/35/22 138/138/22 134/134/22
f 76/76/23 79/79/23 184/184/23
f 76/76/23 184/184/23 181/181/23
f 38/38/24 42/42/24 141/141/24
f 38/38/24 141/141/24 137/137/24
f 80/80/25 82/82/25 187/187/25
f 80/80/25 187/187/25 185/185/25
s 1
f 41/41/26 45/45/26 144/144/26
f 41/41/26 144/144/26 140/140/26
s 0
f 83/83/27 85/85/27 190/190/27
f 83/83/27 190/190/27 188/188/27
f 44/44/28 48/48/28 147/147/28
f 44/44/28 147/147/28 143/143/28
f 6/6/29 8/8/29 104/104/29
f 6/6/29 104/104/29 108/108/29
f 86/86/30 88/88/30 193/193/30
f 86/86/30 193/193/30 191/191/30
f 47/47/31 51/51/31 150/150/31
f 47/47/31 150/150/31 146/146/31
f 9/9/32 11/11/32 110/110/32
f 9/9/32 110/110/32 105/105/32
f 89/89/33 91/91/33 196/196/33
f 89/89/33 196/196/33 194/194/33
f 50/50/34 3/3/34 153/153/34
f 50/50/34 153/153/34 149/149/34
f 12/12/35 14/14/35 113/113/35
f 12/12/35 113/113/35 111/111/35
f 92/92/36 94/94/36 199/199/36
f 92/92/36 199/199/36 197/197/36
